<?xml version="1.0" ?><!DOCTYPE svg  PUBLIC '-//W3C//DTD SVG 1.1//EN'  'http://www.w3.org/Graphics/SVG/1.1/DTD/svg11.dtd'><svg height="6.82666in" style="shape-rendering:geometricPrecision; text-rendering:geometricPrecision; image-rendering:optimizeQuality; fill-rule:evenodd; clip-rule:evenodd" viewBox="0 0 6827 6827" width="6.82666in" xml:space="preserve" xmlns="http://www.w3.org/2000/svg" xmlns:xlink="http://www.w3.org/1999/xlink"><defs><style type="text/css">
   <![CDATA[
    .fil3 {fill:none}
    .fil2 {fill:#80CBC4}
    .fil1 {fill:#FAC23C}
    .fil0 {fill:#013668;fill-rule:nonzero}
   ]]>
  </style></defs><g id="Layer_x0020_1"><g id="_271574504"><path class="fil0" d="M4462 2302c15,-18 31,-35 49,-49 53,-43 115,-64 195,-64 90,0 171,36 230,95 59,59 95,140 95,230 0,142 -68,280 -170,416 -97,129 -221,253 -345,377 -31,31 -82,31 -113,0 -124,-124 -248,-248 -345,-377 -102,-136 -170,-274 -170,-416 0,-90 36,-171 95,-230 59,-59 140,-95 230,-95 114,0 186,38 246,113zm149 75c-28,22 -52,60 -78,111 -7,15 -20,28 -36,36 -39,20 -87,4 -107,-36 -47,-93 -91,-140 -174,-140 -46,0 -87,19 -117,48 -30,30 -48,71 -48,117 0,103 55,211 137,320 74,98 172,200 274,303 102,-102 200,-204 274,-303 82,-110 137,-217 137,-320 0,-46 -19,-87 -48,-117 -30,-30 -71,-48 -117,-48 -42,0 -73,9 -96,28z"/><path class="fil0" d="M2366 2302c15,-18 31,-35 49,-49 53,-43 115,-64 195,-64 90,0 171,36 230,95 59,59 95,140 95,230 0,142 -68,280 -170,416 -97,129 -221,253 -345,377 -31,31 -82,31 -113,0 -124,-124 -248,-248 -345,-377 -102,-136 -170,-274 -170,-416 0,-90 36,-171 95,-230 59,-59 140,-95 230,-95 114,0 186,38 246,113zm149 75c-28,22 -52,60 -78,111 -7,15 -20,28 -36,36 -39,20 -87,4 -107,-36 -47,-93 -91,-140 -174,-140 -46,0 -87,19 -117,48 -30,30 -48,71 -48,117 0,103 55,211 137,320 74,98 172,200 274,303 102,-102 200,-204 274,-303 82,-110 137,-217 137,-320 0,-46 -19,-87 -48,-117 -30,-30 -71,-48 -117,-48 -42,0 -73,9 -96,28z"/><path class="fil0" d="M3413 853c707,0 1347,287 1810,750 463,463 750,1103 750,1810 0,707 -287,1347 -750,1810 -463,463 -1103,750 -1810,750 -707,0 -1347,-287 -1810,-750 -463,-463 -750,-1103 -750,-1810 0,-707 287,-1347 750,-1810 463,-463 1103,-750 1810,-750zm1697 863c-434,-434 -1034,-703 -1697,-703 -663,0 -1263,269 -1697,703 -434,434 -703,1034 -703,1697 0,663 269,1263 703,1697 434,434 1034,703 1697,703 663,0 1263,-269 1697,-703 434,-434 703,-1034 703,-1697 0,-663 -269,-1263 -703,-1697z"/><path class="fil0" d="M2093 4294c-21,-39 -7,-87 32,-108 39,-21 87,-7 108,32 102,187 267,345 475,456 203,108 445,171 705,171 261,0 503,-63 705,-171 207,-111 373,-269 475,-456 21,-39 69,-53 108,-32 39,21 53,69 32,108 -116,214 -305,395 -540,520 -225,121 -493,191 -780,191 -287,0 -555,-70 -780,-191 -235,-126 -423,-306 -540,-520z"/></g><path class="fil1" d="M2936 2515c0,142 -68,280 -170,416 -97,129 -221,253 -345,377 -31,31 -82,31 -113,0 -124,-124 -248,-248 -345,-377 -102,-136 -170,-274 -170,-416 0,-90 36,-171 95,-230 59,-59 140,-95 230,-95 114,0 186,38 246,113 15,-18 31,-35 49,-49 53,-43 115,-64 195,-64 90,0 171,36 230,95 59,59 95,140 95,230zm-843 1779c-21,-39 -7,-87 32,-108 39,-21 87,-7 108,32 102,187 267,345 475,456 203,108 445,171 705,171 261,0 503,-63 705,-171 207,-111 373,-269 475,-456 21,-39 69,-53 108,-32 39,21 53,69 32,108 -116,214 -305,395 -540,520 -225,121 -493,191 -780,191 -287,0 -555,-70 -780,-191 -235,-126 -423,-306 -540,-520zm3017 -2577c-434,-434 -1034,-703 -1697,-703 -663,0 -1263,269 -1697,703 -434,434 -703,1034 -703,1697 0,663 269,1263 703,1697 434,434 1034,703 1697,703 663,0 1263,-269 1697,-703 434,-434 703,-1034 703,-1697 0,-663 -269,-1263 -703,-1697zm-648 586c15,-18 31,-35 49,-49 53,-43 115,-64 195,-64 90,0 171,36 230,95 59,59 95,140 95,230 0,142 -68,280 -170,416 -97,129 -221,253 -345,377 -31,31 -82,31 -113,0 -124,-124 -248,-248 -345,-377 -102,-136 -170,-274 -170,-416 0,-90 36,-171 95,-230 59,-59 140,-95 230,-95 114,0 186,38 246,113z"/><path class="fil2" d="M2639 2835c82,-110 137,-217 137,-320 0,-46 -19,-87 -48,-117 -30,-30 -71,-48 -117,-48 -42,0 -73,9 -96,28 -28,22 -52,60 -78,111 -7,15 -20,28 -36,36 -39,20 -87,4 -107,-36 -47,-93 -91,-140 -174,-140 -46,0 -87,19 -117,48 -30,30 -48,71 -48,117 0,103 55,211 137,320 74,98 172,200 274,303 102,-102 200,-204 274,-303z"/><path class="fil2" d="M4051 2515c0,103 55,211 137,320 74,98 172,200 274,303 102,-102 200,-204 274,-303 82,-110 137,-217 137,-320 0,-46 -19,-87 -48,-117 -30,-30 -71,-48 -117,-48 -42,0 -73,9 -96,28 -28,22 -52,60 -78,111 -7,15 -20,28 -36,36 -39,20 -87,4 -107,-36 -47,-93 -91,-140 -174,-140 -46,0 -87,19 -117,48 -30,30 -48,71 -48,117z"/></g><rect class="fil3" height="6827" width="6827"/></svg>